<svg xmlns="http://www.w3.org/2000/svg" viewBox="0 0 512 512">
  <path fill="#ff6b81" d="M416 448H96c-17.7 0-32 14.3-32 32s14.3 32 32 32h320c17.7 0 32-14.3 32-32s-14.3-32-32-32zM153.2 250.2c-23.7 20-35.1 52.1-28.9 83.1l11.1 55.4c1.9 9.3 10 16 19.5 16h202.1c9.5 0 17.6-6.7 19.5-16l11.1-55.4c6.2-31-5.2-63.1-28.9-83.1l-10.7-9.1c-16.7-14.1-26.4-34.9-26.4-56.7V112c0-8.8-7.2-16-16-16H204.9c-8.8 0-16 7.2-16 16v72.5c0 21.8-9.7 42.6-26.4 56.7l-9.3 7.8zM304 32c0-17.7-14.3-32-32-32s-32 14.3-32 32v16h64V32z"/>
</svg>